# xmcd CD database file
#
# Track frame offsets:
#	150
#	14597
#	30505
#	45195
#	59067
#	74322
#	91247
#	103522
#	117512
#	133210
#	149587
#	167107
#	182937
#	202527
#	219040
#
# Disc length: 2953 seconds
#
# Revision: 0
# Processed by: cddbd v1.5.1PL2 Copyright (c) Steve Scherf et al.
# Submitted via: CDex 1.51
#
DISCID=d40b870f
DTITLE=Koreda Dan - Tolavej sen
DYEAR=1996
DGENRE=Country
TTITLE0=Toulavej sen
TTITLE1=Bud mou
TTITLE2=Nocni nadrazi
TTITLE3=Palis mosty
TTITLE4=Rikam tise Broken Heart
TTITLE5=Stejnou lasku dam
TTITLE6=Proto radej odchazim
TTITLE7=Pro ty krasny cerny kone
TTITLE8=Reka
TTITLE9=Hrad z pisku
TTITLE10=Laskou obratis svet
TTITLE11=Kridla mam
TTITLE12=Mistr kouzel a snu
TTITLE13=Pro svych sedmnact
TTITLE14=Good bye
EXTD=YEAR: 1996
EXTT0=
EXTT1=
EXTT2=
EXTT3=
EXTT4=
EXTT5=
EXTT6=
EXTT7=
EXTT8=
EXTT9=
EXTT10=
EXTT11=
EXTT12=
EXTT13=
EXTT14=
PLAYORDER=
